<svg width="440" height="340" xmlns="http://www.w3.org/2000/svg">
<path stroke-width="1" stroke="black" d="M 274 201 265 200"/>
<path stroke-width="1" stroke="black" d="M 264 187 285 193"/>
<path stroke-width="1" stroke="black" d="M 264 187 281 188"/>
<path stroke-width="1" stroke="black" d="M 264 187 274 185"/>
<path stroke-width="1" stroke="black" d="M 264 187 267 195"/>
<path stroke-width="1" stroke="black" d="M 264 187 259 191"/>
<path stroke-width="1" stroke="black" d="M 264 187 259 196"/>
<path stroke-width="1" stroke="black" d="M 264 187 276 194"/>
<path stroke-width="1" stroke="black" d="M 264 187 265 200"/>
<path stroke-width="1" stroke="black" d="M 264 187 274 201"/>
<path stroke-width="1" stroke="black" d="M 281 188 281 198"/>
<path stroke-width="1" stroke="black" d="M 281 188 270 189"/>
<path stroke-width="1" stroke="black" d="M 281 188 285 193"/>
<path stroke-width="1" stroke="black" d="M 281 188 264 187"/>
<path stroke-width="1" stroke="black" d="M 281 188 274 185"/>
<path stroke-width="1" stroke="black" d="M 281 188 267 195"/>
<path stroke-width="1" stroke="black" d="M 281 188 259 191"/>
<path stroke-width="1" stroke="black" d="M 281 188 259 196"/>
<path stroke-width="1" stroke="black" d="M 281 188 276 194"/>
<path stroke-width="1" stroke="black" d="M 281 188 265 200"/>
<path stroke-width="1" stroke="black" d="M 281 188 274 201"/>
<path stroke-width="1" stroke="black" d="M 274 185 281 198"/>
<path stroke-width="1" stroke="black" d="M 274 185 270 189"/>
<path stroke-width="1" stroke="black" d="M 274 185 285 193"/>
<path stroke-width="1" stroke="black" d="M 274 185 264 187"/>
<path stroke-width="1" stroke="black" d="M 274 185 281 188"/>
<path stroke-width="1" stroke="black" d="M 274 185 267 195"/>
<path stroke-width="1" stroke="black" d="M 274 185 259 191"/>
<path stroke-width="1" stroke="black" d="M 274 185 259 196"/>
<path stroke-width="1" stroke="black" d="M 274 185 276 194"/>
<path stroke-width="1" stroke="black" d="M 264 187 270 189"/>
<path stroke-width="1" stroke="black" d="M 274 185 265 200"/>
<path stroke-width="1" stroke="black" d="M 264 187 281 198"/>
<path stroke-width="1" stroke="black" d="M 285 193 265 200"/>
<path stroke-width="1" stroke="black" d="M 281 198 264 187"/>
<path stroke-width="1" stroke="black" d="M 281 198 281 188"/>
<path stroke-width="1" stroke="black" d="M 281 198 274 185"/>
<path stroke-width="1" stroke="black" d="M 281 198 267 195"/>
<path stroke-width="1" stroke="black" d="M 281 198 259 191"/>
<path stroke-width="1" stroke="black" d="M 281 198 259 196"/>
<path stroke-width="1" stroke="black" d="M 281 198 276 194"/>
<path stroke-width="1" stroke="black" d="M 281 198 265 200"/>
<path stroke-width="1" stroke="black" d="M 281 198 274 201"/>
<path stroke-width="1" stroke="black" d="M 270 189 281 198"/>
<path stroke-width="1" stroke="black" d="M 270 189 285 193"/>
<path stroke-width="1" stroke="black" d="M 270 189 264 187"/>
<path stroke-width="1" stroke="black" d="M 270 189 281 188"/>
<path stroke-width="1" stroke="black" d="M 270 189 274 185"/>
<path stroke-width="1" stroke="black" d="M 270 189 267 195"/>
<path stroke-width="1" stroke="black" d="M 270 189 259 191"/>
<path stroke-width="1" stroke="black" d="M 270 189 259 196"/>
<path stroke-width="1" stroke="black" d="M 270 189 276 194"/>
<path stroke-width="1" stroke="black" d="M 270 189 265 200"/>
<path stroke-width="1" stroke="black" d="M 270 189 274 201"/>
<path stroke-width="1" stroke="black" d="M 285 193 281 198"/>
<path stroke-width="1" stroke="black" d="M 285 193 270 189"/>
<path stroke-width="1" stroke="black" d="M 285 193 264 187"/>
<path stroke-width="1" stroke="black" d="M 285 193 281 188"/>
<path stroke-width="1" stroke="black" d="M 285 193 274 185"/>
<path stroke-width="1" stroke="black" d="M 285 193 267 195"/>
<path stroke-width="1" stroke="black" d="M 285 193 259 191"/>
<path stroke-width="1" stroke="black" d="M 285 193 259 196"/>
<path stroke-width="1" stroke="black" d="M 285 193 276 194"/>
<path stroke-width="1" stroke="black" d="M 285 193 274 201"/>
<path stroke-width="1" stroke="black" d="M 274 185 274 201"/>
<path stroke-width="1" stroke="black" d="M 267 195 281 198"/>
<path stroke-width="1" stroke="black" d="M 267 195 270 189"/>
<path stroke-width="1" stroke="black" d="M 276 194 264 187"/>
<path stroke-width="1" stroke="black" d="M 276 194 281 188"/>
<path stroke-width="1" stroke="black" d="M 276 194 274 185"/>
<path stroke-width="1" stroke="black" d="M 276 194 267 195"/>
<path stroke-width="1" stroke="black" d="M 276 194 259 191"/>
<path stroke-width="1" stroke="black" d="M 276 194 259 196"/>
<path stroke-width="1" stroke="black" d="M 276 194 265 200"/>
<path stroke-width="1" stroke="black" d="M 276 194 274 201"/>
<path stroke-width="1" stroke="black" d="M 265 200 281 198"/>
<path stroke-width="1" stroke="black" d="M 265 200 270 189"/>
<path stroke-width="1" stroke="black" d="M 265 200 285 193"/>
<path stroke-width="1" stroke="black" d="M 265 200 264 187"/>
<path stroke-width="1" stroke="black" d="M 265 200 281 188"/>
<path stroke-width="1" stroke="black" d="M 265 200 274 185"/>
<path stroke-width="1" stroke="black" d="M 265 200 267 195"/>
<path stroke-width="1" stroke="black" d="M 265 200 259 191"/>
<path stroke-width="1" stroke="black" d="M 265 200 259 196"/>
<path stroke-width="1" stroke="black" d="M 265 200 276 194"/>
<path stroke-width="1" stroke="black" d="M 265 200 274 201"/>
<path stroke-width="1" stroke="black" d="M 274 201 281 198"/>
<path stroke-width="1" stroke="black" d="M 274 201 270 189"/>
<path stroke-width="1" stroke="black" d="M 274 201 285 193"/>
<path stroke-width="1" stroke="black" d="M 274 201 264 187"/>
<path stroke-width="1" stroke="black" d="M 274 201 281 188"/>
<path stroke-width="1" stroke="black" d="M 274 201 274 185"/>
<path stroke-width="1" stroke="black" d="M 274 201 267 195"/>
<path stroke-width="1" stroke="black" d="M 274 201 259 191"/>
<path stroke-width="1" stroke="black" d="M 274 201 259 196"/>
<path stroke-width="1" stroke="black" d="M 274 201 276 194"/>
<path stroke-width="1" stroke="black" d="M 276 194 285 193"/>
<path stroke-width="1" stroke="black" d="M 276 194 270 189"/>
<path stroke-width="1" stroke="black" d="M 276 194 281 198"/>
<path stroke-width="1" stroke="black" d="M 259 196 274 201"/>
<path stroke-width="1" stroke="black" d="M 267 195 285 193"/>
<path stroke-width="1" stroke="black" d="M 267 195 264 187"/>
<path stroke-width="1" stroke="black" d="M 267 195 281 188"/>
<path stroke-width="1" stroke="black" d="M 267 195 274 185"/>
<path stroke-width="1" stroke="black" d="M 267 195 259 191"/>
<path stroke-width="1" stroke="black" d="M 267 195 259 196"/>
<path stroke-width="1" stroke="black" d="M 267 195 276 194"/>
<path stroke-width="1" stroke="black" d="M 267 195 265 200"/>
<path stroke-width="1" stroke="black" d="M 267 195 274 201"/>
<path stroke-width="1" stroke="black" d="M 259 191 281 198"/>
<path stroke-width="1" stroke="black" d="M 259 191 270 189"/>
<path stroke-width="1" stroke="black" d="M 259 191 285 193"/>
<path stroke-width="1" stroke="black" d="M 259 191 264 187"/>
<path stroke-width="1" stroke="black" d="M 259 191 281 188"/>
<path stroke-width="1" stroke="black" d="M 281 198 285 193"/>
<path stroke-width="1" stroke="black" d="M 259 191 274 185"/>
<path stroke-width="1" stroke="black" d="M 259 191 259 196"/>
<path stroke-width="1" stroke="black" d="M 259 191 276 194"/>
<path stroke-width="1" stroke="black" d="M 259 191 265 200"/>
<path stroke-width="1" stroke="black" d="M 259 191 274 201"/>
<path stroke-width="1" stroke="black" d="M 259 196 281 198"/>
<path stroke-width="1" stroke="black" d="M 259 196 270 189"/>
<path stroke-width="1" stroke="black" d="M 259 196 285 193"/>
<path stroke-width="1" stroke="black" d="M 259 196 264 187"/>
<path stroke-width="1" stroke="black" d="M 259 196 281 188"/>
<path stroke-width="1" stroke="black" d="M 259 196 274 185"/>
<path stroke-width="1" stroke="black" d="M 259 196 267 195"/>
<path stroke-width="1" stroke="black" d="M 259 196 259 191"/>
<path stroke-width="1" stroke="black" d="M 259 196 276 194"/>
<path stroke-width="1" stroke="black" d="M 259 196 265 200"/>
<path stroke-width="1" stroke="black" d="M 259 191 267 195"/>
<path stroke-width="1" stroke="black" d="M 281 198 270 189"/>
<circle cx="274" cy="201" r="7.0" style="fill:blue;stroke:black;stroke-width:1.0"/>
<circle cx="265" cy="200" r="7.0" style="fill:red;stroke:black;stroke-width:1.0"/>
<circle cx="162" cy="104" r="7.0" style="fill:green;stroke:black;stroke-width:1.0"/>
<circle cx="276" cy="194" r="7.0" style="fill:orange;stroke:black;stroke-width:1.0"/>
<circle cx="259" cy="196" r="7.0" style="fill:purple;stroke:black;stroke-width:1.0"/>
<circle cx="111" cy="246" r="7.0" style="fill:yellow;stroke:black;stroke-width:1.0"/>
<circle cx="259" cy="191" r="7.0" style="fill:fuchsia;stroke:black;stroke-width:1.0"/>
<circle cx="66" cy="320" r="7.0" style="fill:olive;stroke:black;stroke-width:1.0"/>
<circle cx="161" cy="20" r="7.0" style="fill:aqua;stroke:black;stroke-width:1.0"/>
<circle cx="267" cy="195" r="7.0" style="fill:brown;stroke:black;stroke-width:1.0"/>
<circle cx="420" cy="137" r="7.0" style="fill:blue;stroke:black;stroke-width:1.0"/>
<circle cx="274" cy="185" r="7.0" style="fill:red;stroke:black;stroke-width:1.0"/>
<circle cx="337" cy="31" r="7.0" style="fill:green;stroke:black;stroke-width:1.0"/>
<circle cx="196" cy="276" r="7.0" style="fill:orange;stroke:black;stroke-width:1.0"/>
<circle cx="281" cy="188" r="7.0" style="fill:purple;stroke:black;stroke-width:1.0"/>
<circle cx="128" cy="301" r="7.0" style="fill:yellow;stroke:black;stroke-width:1.0"/>
<circle cx="264" cy="187" r="7.0" style="fill:fuchsia;stroke:black;stroke-width:1.0"/>
<circle cx="285" cy="193" r="7.0" style="fill:olive;stroke:black;stroke-width:1.0"/>
<circle cx="270" cy="189" r="7.0" style="fill:aqua;stroke:black;stroke-width:1.0"/>
<circle cx="20" cy="238" r="7.0" style="fill:brown;stroke:black;stroke-width:1.0"/>
<circle cx="191" cy="125" r="7.0" style="fill:blue;stroke:black;stroke-width:1.0"/>
<circle cx="24" cy="130" r="7.0" style="fill:red;stroke:black;stroke-width:1.0"/>
<circle cx="281" cy="198" r="7.0" style="fill:green;stroke:black;stroke-width:1.0"/>
<circle cx="335" cy="278" r="7.0" style="fill:orange;stroke:black;stroke-width:1.0"/>
</svg>
